<svg width="241" height="244" viewBox="0 0 241 244" fill="none" xmlns="http://www.w3.org/2000/svg">
<line y1="2" x2="240" y2="2" stroke="black" stroke-width="4"/>
<line x1="2.00002" y1="4" x2="2" y2="244" stroke="black" stroke-width="4"/>
<path d="M239 0L239 244" stroke="black" stroke-width="4"/>
<line y1="242" x2="240" y2="242" stroke="black" stroke-width="4"/>
<path d="M102.051 80.3636H109.273V122.994C109.273 126.799 108.574 130.031 107.176 132.691C105.778 135.351 103.808 137.37 101.265 138.748C98.7218 140.126 95.7225 140.815 92.267 140.815C89.0057 140.815 86.1035 140.223 83.5604 139.039C81.0173 137.835 79.0178 136.127 77.5618 133.914C76.1058 131.701 75.3778 129.071 75.3778 126.023H82.483C82.483 127.712 82.9003 129.187 83.7351 130.449C84.5893 131.691 85.754 132.662 87.2294 133.361C88.7048 134.06 90.384 134.409 92.267 134.409C94.3442 134.409 96.1108 133.972 97.5668 133.099C99.0227 132.225 100.129 130.944 100.886 129.255C101.663 127.547 102.051 125.46 102.051 122.994V80.3636ZM156.359 95.2727C156.009 92.322 154.592 90.0312 152.107 88.4006C149.622 86.7699 146.575 85.9545 142.964 85.9545C140.324 85.9545 138.013 86.3816 136.033 87.2358C134.073 88.09 132.539 89.2644 131.433 90.7592C130.345 92.254 129.802 93.9526 129.802 95.8551C129.802 97.447 130.18 98.8156 130.938 99.9609C131.714 101.087 132.704 102.028 133.908 102.786C135.111 103.523 136.373 104.135 137.693 104.62C139.013 105.086 140.227 105.464 141.333 105.756L147.39 107.386C148.943 107.794 150.671 108.357 152.573 109.075C154.495 109.794 156.33 110.774 158.077 112.016C159.843 113.239 161.299 114.812 162.445 116.734C163.59 118.656 164.163 121.014 164.163 123.81C164.163 127.032 163.318 129.944 161.629 132.545C159.96 135.147 157.514 137.214 154.291 138.748C151.088 140.281 147.196 141.048 142.614 141.048C138.344 141.048 134.645 140.359 131.52 138.981C128.414 137.603 125.968 135.681 124.182 133.215C122.415 130.75 121.415 127.886 121.183 124.625H128.637C128.831 126.877 129.588 128.741 130.908 130.216C132.248 131.672 133.937 132.759 135.975 133.477C138.033 134.176 140.246 134.526 142.614 134.526C145.371 134.526 147.846 134.079 150.04 133.186C152.233 132.274 153.971 131.012 155.252 129.401C156.533 127.77 157.174 125.867 157.174 123.693C157.174 121.713 156.621 120.102 155.514 118.859C154.408 117.617 152.952 116.607 151.146 115.831C149.341 115.054 147.39 114.375 145.293 113.793L137.955 111.696C133.296 110.357 129.608 108.444 126.89 105.96C124.172 103.475 122.813 100.223 122.813 96.2045C122.813 92.8655 123.716 89.9536 125.521 87.4688C127.346 84.9645 129.792 83.0232 132.859 81.6449C135.946 80.2472 139.392 79.5483 143.197 79.5483C147.04 79.5483 150.457 80.2375 153.447 81.6158C156.436 82.9747 158.805 84.8383 160.552 87.2067C162.318 89.575 163.25 92.2637 163.347 95.2727H156.359Z" fill="black"/>
</svg>
